<svg xmlns="http://www.w3.org/2000/svg" width="100.7" height="102.2"><g stroke-linecap="round"><path fill="none" stroke="#e64980" stroke-width="4" d="M34 32c5 10 19 59 29 59 9-1 23-51 28-61m-58 2c5 10 20 60 29 60 10 0 23-51 28-61"/><path fill="none" stroke="#e64980" stroke-width="4" d="M90 56c2-6 0-15 0-25m0 25V31M74 50c7-4 10-11 16-19M74 50l16-19"/></g><g stroke-linecap="round"><path fill="none" stroke="#e64980" stroke-width="4" d="M68 69c-5-10-19-57-28-57-10 0-25 49-30 59m56 0c-4-10-18-61-27-61S17 59 12 69"/><path fill="none" stroke="#e64980" stroke-width="4" d="M12 44c-2 6 1 9 0 25m0-25v25M28 50 12 69m16-19c-5 8-12 14-16 19"/></g></svg>